<?xml version="1.0" encoding="UTF-8"?>
<svg width="200" height="200" viewBox="0 0 200 200" fill="none" xmlns="http://www.w3.org/2000/svg">
  <!-- Calendar Base -->
  <rect x="40" y="30" width="120" height="140" rx="12" fill="#F3F4F6" stroke="#E5E7EB" stroke-width="4"/>
  
  <!-- Calendar Header -->
  <rect x="40" y="30" width="120" height="30" rx="12" fill="#E5E7EB"/>
  
  <!-- Calendar Grid Lines -->
  <line x1="40" y1="60" x2="160" y2="60" stroke="#E5E7EB" stroke-width="2"/>
  <line x1="40" y1="90" x2="160" y2="90" stroke="#E5E7EB" stroke-width="2"/>
  <line x1="40" y1="120" x2="160" y2="120" stroke="#E5E7EB" stroke-width="2"/>
  <line x1="40" y1="150" x2="160" y2="150" stroke="#E5E7EB" stroke-width="2"/>
  
  <line x1="80" y1="30" x2="80" y2="170" stroke="#E5E7EB" stroke-width="2"/>
  <line x1="120" y1="30" x2="120" y2="170" stroke="#E5E7EB" stroke-width="2"/>
  
  <!-- Calendar Numbers -->
  <text x="55" y="85" font-family="Arial" font-size="16" fill="#6B7280">1</text>
  <text x="95" y="85" font-family="Arial" font-size="16" fill="#6B7280">2</text>
  <text x="135" y="85" font-family="Arial" font-size="16" fill="#6B7280">3</text>
  
  <text x="55" y="115" font-family="Arial" font-size="16" fill="#6B7280">4</text>
  <text x="95" y="115" font-family="Arial" font-size="16" fill="#6B7280">5</text>
  <text x="135" y="115" font-family="Arial" font-size="16" fill="#6B7280">6</text>
  
  <text x="55" y="145" font-family="Arial" font-size="16" fill="#6B7280">7</text>
  <text x="95" y="145" font-family="Arial" font-size="16" fill="#6B7280">8</text>
  <text x="135" y="145" font-family="Arial" font-size="16" fill="#6B7280">9</text>
  
  <!-- Decorative Elements -->
  <circle cx="100" cy="100" r="40" fill="#DBEAFE" opacity="0.5"/>
  <path d="M100 80 L100 120 M80 100 L120 100" stroke="#3B82F6" stroke-width="4" stroke-linecap="round"/>
</svg> 